<svg class="diagram-root" style="background: #f5f6f6" xmlns="http://www.w3.org/2000/svg" xmlns:xlink="http://www.w3.org/1999/xlink"><style>.diagram-root { font-family: "Helvetica Neue", sans-serif; font-size: 12px; } .t { overflow: visible; } .t-bg { y: 40; fill: #fff;   } .th { fill: #005aa0;   } .tht { fill: #fff; font-size: 14px;  } .tf { fill: #323c46; overflow: visible; } .tf.pk { fill: #005aa0; font-weight: bold; } .tf.fk { font-weight: bold; } .ty { fill: #adb1b5; font-weight: normal; text-anchor: end; } .r { fill: transparent; stroke: #c3c3c3; stroke-width: 1; } .l { stroke: 1; } .i { fill: #c2c7ce; stroke: #c2c7ce; } .i.ix { fill: #afb3b6; stroke: #000; } .fa { fill: transparent; overflow: visible; } .fa .bg.hover { fill: #f7f7f7; } .c { cy: 12; r: 4; stroke: #d2d2dc; fill: #d2d2dc; } .hr { fill: transparent; stroke: #323c46; stroke-opacity: 0.035; stroke-width: 13; } .dc { stroke: #fa5a3c; fill: #fa5a3c; } .x { stroke: white; stroke-width: 1; } .hl .th { fill: #1b9bff; } .hl .tht {  } .fhl .bg { fill: #e7f4ff; } .fhls .bg {  } .r.hl { stroke: #1b9bff; } .dim { opacity: 0.25; }</style><g class="drawing-wrapper" transform="translate(-226, -33) scale(1,1)"><g class="rs"><path d="M 516 463 m -1, 0 a 1,1 0 1,0 2,0 a 1,1 0 1,0 -2,0 M 516 463 m -0.5, 0 a 0.5,0.5 0 1,0 1,0 a 0.5,0.5 0 1,0 -1,0  M516 463 L516 463 528 463 M 516 469 m -1, 0 a 1,1 0 1,0 2,0 a 1,1 0 1,0 -2,0 M 516 469 m -0.5, 0 a 0.5,0.5 0 1,0 1,0 a 0.5,0.5 0 1,0 -1,0  M516 469 L516 469 523 463 516 457 M 516 457 m -1, 0 a 1,1 0 1,0 2,0 a 1,1 0 1,0 -2,0 M 516 457 m -0.5, 0 a 0.5,0.5 0 1,0 1,0 a 0.5,0.5 0 1,0 -1,0  M528 463 C 578 463, 623.6 257, 452 257 M 440 257 m -1, 0 a 1,1 0 1,0 2,0 a 1,1 0 1,0 -2,0 M 440 257 m -0.5, 0 a 0.5,0.5 0 1,0 1,0 a 0.5,0.5 0 1,0 -1,0  M440 257 L440 257 452 257 M446 263 L446 263 446 251" id="h3427422515" class="r"></path><path d="M 722 295 m -1, 0 a 1,1 0 1,0 2,0 a 1,1 0 1,0 -2,0 M 722 295 m -0.5, 0 a 0.5,0.5 0 1,0 1,0 a 0.5,0.5 0 1,0 -1,0  M722 295 L722 295 710 295 M 722 301 m -1, 0 a 1,1 0 1,0 2,0 a 1,1 0 1,0 -2,0 M 722 301 m -0.5, 0 a 0.5,0.5 0 1,0 1,0 a 0.5,0.5 0 1,0 -1,0  M722 301 L722 301 715 295 722 289 M 722 289 m -1, 0 a 1,1 0 1,0 2,0 a 1,1 0 1,0 -2,0 M 722 289 m -0.5, 0 a 0.5,0.5 0 1,0 1,0 a 0.5,0.5 0 1,0 -1,0  M710 295 Q 694.75 295, 679.5 257.5 T 649 220 M 637 220 m -1, 0 a 1,1 0 1,0 2,0 a 1,1 0 1,0 -2,0 M 637 220 m -0.5, 0 a 0.5,0.5 0 1,0 1,0 a 0.5,0.5 0 1,0 -1,0  M637 220 L637 220 649 220 M643 226 L643 226 643 214" id="h3790935244" class="r"></path><path d="M 627 554 m -1, 0 a 1,1 0 1,0 2,0 a 1,1 0 1,0 -2,0 M 627 554 m -0.5, 0 a 0.5,0.5 0 1,0 1,0 a 0.5,0.5 0 1,0 -1,0  M627 554 L627 554 615 554 M 627 560 m -1, 0 a 1,1 0 1,0 2,0 a 1,1 0 1,0 -2,0 M 627 560 m -0.5, 0 a 0.5,0.5 0 1,0 1,0 a 0.5,0.5 0 1,0 -1,0  M627 560 L627 560 620 554 627 548 M 627 548 m -1, 0 a 1,1 0 1,0 2,0 a 1,1 0 1,0 -2,0 M 627 548 m -0.5, 0 a 0.5,0.5 0 1,0 1,0 a 0.5,0.5 0 1,0 -1,0  M615 554 C 565 554, 508 345, 710 345 M 722 345 m -1, 0 a 1,1 0 1,0 2,0 a 1,1 0 1,0 -2,0 M 722 345 m -0.5, 0 a 0.5,0.5 0 1,0 1,0 a 0.5,0.5 0 1,0 -1,0  M722 345 L722 345 710 345 M716 351 L716 351 716 339" id="h1606713533" class="r"></path><path d="M 637 195 m -1, 0 a 1,1 0 1,0 2,0 a 1,1 0 1,0 -2,0 M 637 195 m -0.5, 0 a 0.5,0.5 0 1,0 1,0 a 0.5,0.5 0 1,0 -1,0  M637 195 L637 195 649 195 M 637 201 m -1, 0 a 1,1 0 1,0 2,0 a 1,1 0 1,0 -2,0 M 637 201 m -0.5, 0 a 0.5,0.5 0 1,0 1,0 a 0.5,0.5 0 1,0 -1,0  M637 201 L637 201 644 195 637 189 M 637 189 m -1, 0 a 1,1 0 1,0 2,0 a 1,1 0 1,0 -2,0 M 637 189 m -0.5, 0 a 0.5,0.5 0 1,0 1,0 a 0.5,0.5 0 1,0 -1,0  M649 195 C 699 195, 817.2 282, 452 282 M 440 282 m -1, 0 a 1,1 0 1,0 2,0 a 1,1 0 1,0 -2,0 M 440 282 m -0.5, 0 a 0.5,0.5 0 1,0 1,0 a 0.5,0.5 0 1,0 -1,0  M440 282 L440 282 452 282 M446 288 L446 288 446 276" id="h1642943912" class="r"></path></g><g class="hrs"></g><g class="ts"><svg width="165" height="175" x="472" y="63" id="h2303088149" class="t"><rect height="40" width="165" class="th"></rect><text x="13" y="25" class="tht">transactions</text><rect height="135" width="165" class="t-bg" y="40"></rect><text x="13" y="61" class="tf pk">Trans_ID<tspan x="152" class="ty">INT</tspan></text><path d="M7,14A2,2 0 0,1 5,12A2,2 0 0,1 7,10A2,2 0 0,1 9,12A2,2 0 0,1 7,14M12.65,10C11.83,7.67 9.61,6 7, 6A6, 6 0 0, 0 1, 12A6, 6 0 0, 0 7, 18C9.61, 18 11.83, 16.33 12.65, 14H17V18H21V14H23V10H12.65Z" class="i pk" transform="translate(113, 48) scale(0.65)"></path><text x="13" y="86" class="tf">Trans_DateTime<tspan x="152" class="ty">Date</tspan></text><text x="13" y="111" class="tf">Trans_Amt<tspan x="152" class="ty">Float</tspan></text><text x="13" y="136" class="tf fk">Trans_CC_Nbr<tspan x="152" class="ty">Char</tspan></text><text x="13" y="161" class="tf fk">Trans_Merch_ID<tspan x="152" class="ty">INT</tspan></text></svg><svg width="192" height="100" x="248" y="200" id="h3509206463" class="t"><rect height="40" width="192" class="th"></rect><text x="13" y="25" class="tht">credit_cards</text><rect height="60" width="192" class="t-bg" y="40"></rect><text x="13" y="61" class="tf fk">CC_ID<tspan x="179" class="ty">VARCHAR</tspan></text><text x="13" y="86" class="tf pk">CC_Number<tspan x="179" class="ty">VARCHAR</tspan></text><path d="M7,14A2,2 0 0,1 5,12A2,2 0 0,1 7,10A2,2 0 0,1 9,12A2,2 0 0,1 7,14M12.65,10C11.83,7.67 9.61,6 7, 6A6, 6 0 0, 0 1, 12A6, 6 0 0, 0 7, 18C9.61, 18 11.83, 16.33 12.65, 14H17V18H21V14H23V10H12.65Z" class="i pk" transform="translate(103, 73) scale(0.65)"></path></svg><svg width="174" height="100" x="342" y="406" id="h2197030132" class="t"><rect height="40" width="174" class="th"></rect><text x="13" y="25" class="tht">card_holders</text><rect height="60" width="174" class="t-bg" y="40"></rect><text x="13" y="61" class="tf pk">CC_holder_ID<tspan x="161" class="ty">INT</tspan></text><path d="M7,14A2,2 0 0,1 5,12A2,2 0 0,1 7,10A2,2 0 0,1 9,12A2,2 0 0,1 7,14M12.65,10C11.83,7.67 9.61,6 7, 6A6, 6 0 0, 0 1, 12A6, 6 0 0, 0 7, 18C9.61, 18 11.83, 16.33 12.65, 14H17V18H21V14H23V10H12.65Z" class="i pk" transform="translate(122, 48) scale(0.65)"></path><text x="13" y="86" class="tf">CC_holder_Name<tspan x="161" class="ty">Char</tspan></text></svg><svg width="193" height="125" x="722" y="238" id="h2608040635" class="t"><rect height="40" width="193" class="th"></rect><text x="13" y="25" class="tht">merchants</text><rect height="85" width="193" class="t-bg" y="40"></rect><text x="13" y="61" class="tf pk">Merchant_ID<tspan x="180" class="ty">INT</tspan></text><path d="M7,14A2,2 0 0,1 5,12A2,2 0 0,1 7,10A2,2 0 0,1 9,12A2,2 0 0,1 7,14M12.65,10C11.83,7.67 9.61,6 7, 6A6, 6 0 0, 0 1, 12A6, 6 0 0, 0 7, 18C9.61, 18 11.83, 16.33 12.65, 14H17V18H21V14H23V10H12.65Z" class="i pk" transform="translate(141, 48) scale(0.65)"></path><text x="13" y="86" class="tf">Merchant_Bus_Name<tspan x="180" class="ty">Char</tspan></text><text x="13" y="111" class="tf fk">Merchant_Cat_Nbr<tspan x="180" class="ty">INT</tspan></text></svg><svg width="166" height="100" x="627" y="497" id="h681307689" class="t"><rect height="40" width="166" class="th"></rect><text x="13" y="25" class="tht">merchant_cat</text><rect height="60" width="166" class="t-bg" y="40"></rect><text x="13" y="61" class="tf pk">Merch_cat_nbr<tspan x="153" class="ty">INT</tspan></text><path d="M7,14A2,2 0 0,1 5,12A2,2 0 0,1 7,10A2,2 0 0,1 9,12A2,2 0 0,1 7,14M12.65,10C11.83,7.67 9.61,6 7, 6A6, 6 0 0, 0 1, 12A6, 6 0 0, 0 7, 18C9.61, 18 11.83, 16.33 12.65, 14H17V18H21V14H23V10H12.65Z" class="i pk" transform="translate(114, 48) scale(0.65)"></path><text x="13" y="86" class="tf">Merch_cat_name<tspan x="153" class="ty">char</tspan></text></svg></g></g><text class="qdbd-link" x="10" y="20">www.quickdatabasediagrams.com</text></svg>